<svg enable-background="new 0 0 60 60" viewBox="0 0 60 60" xmlns="http://www.w3.org/2000/svg"><g fill="#0050aa"><path d="m20.5 13.5h21c.3 0 .5-.2.5-.5v-2c0-.3-.2-.5-.5-.5h-23c-.3 0-.5.2-.5.5 0 1.4 1.1 2.5 2.5 2.5z"/><path d="m20.5 22.5h9c.3 0 .5-.2.5-.5v-2c0-.3-.2-.5-.5-.5h-11c-.3 0-.5.2-.5.5 0 1.4 1.1 2.5 2.5 2.5z"/><path d="m36 31v-2c0-.3-.2-.5-.5-.5h-17c-.3 0-.5.2-.5.5 0 1.4 1.1 2.5 2.5 2.5h15c.3 0 .5-.2.5-.5z"/><path d="m56.5 22.5h-4v-19c0-1.1-.9-2-2-2h-41c-1.1 0-2 .9-2 2v19h-4c-1.1 0-2 .9-2 2v22.5c0 6.4 5.1 11.5 11.5 11.5h43.5c1.1 0 2-.9 2-2v-32c0-1.1-.9-2-2-2zm-46-18h39v24.2l-19.5 17.3-19.5-17.3zm45 51h-42.5c-4.7 0-8.5-3.8-8.5-8.5v-19.7l24.2 21.5c.8.7 1.9.7 2.7 0l24.2-21.5v28.2z"/></g></svg>