<?xml version="1.0" encoding="utf-8"?>
<!-- Generator: Adobe Illustrator 24.2.3, SVG Export Plug-In . SVG Version: 6.00 Build 0)  -->
<svg version="1.1" id="Twitter_Icon" xmlns="http://www.w3.org/2000/svg" xmlns:xlink="http://www.w3.org/1999/xlink" x="0px"
	 y="0px" viewBox="0 0 60 60" style="enable-background:new 0 0 60 60;" xml:space="preserve">
<path id="Twitter" d="M19.1,53.9c22.2,0,34.3-18.4,34.3-34.3c0-0.5,0-1,0-1.6c2.4-1.7,4.4-3.8,6-6.2c-2.2,1-4.5,1.6-6.9,1.9
	c2.5-1.5,4.4-3.9,5.3-6.7c-2.3,1.4-4.9,2.4-7.7,2.9c-2.2-2.3-5.3-3.8-8.8-3.8c-6.7,0-12.1,5.4-12.1,12.1c0,0.9,0.1,1.9,0.3,2.7
	c-10-0.5-18.9-5.3-24.8-12.6c-1,1.8-1.6,3.9-1.6,6.1c0,4.2,2.1,7.9,5.4,10c-2-0.1-3.8-0.6-5.5-1.5C3,23,3,23,3,23.1
	c0,5.8,4.2,10.7,9.7,11.8c-1,0.3-2.1,0.4-3.2,0.4c-0.8,0-1.5-0.1-2.3-0.2c1.5,4.8,6,8.3,11.3,8.4c-4.1,3.2-9.3,5.2-15,5.2
	c-1,0-1.9-0.1-2.9-0.2C6,51.9,12.3,53.9,19.1,53.9"/>
</svg>
