<?xml version="1.0" encoding="utf-8"?>
<!-- Generator: Adobe Illustrator 24.2.3, SVG Export Plug-In . SVG Version: 6.00 Build 0)  -->
<svg version="1.1" id="Ebene_1" xmlns="http://www.w3.org/2000/svg" xmlns:xlink="http://www.w3.org/1999/xlink" x="0px" y="0px"
	 width="60px" height="60px" viewBox="0 0 60 60" style="enable-background:new 0 0 60 60;" xml:space="preserve">
<path d="M30,0.3C13.5,0.3,0.1,13.7,0.1,30.2c0,14.9,10.9,27.3,25.2,29.5V38.8h-7.6v-8.6h7.6v-6.6c0-7.5,4.5-11.6,11.3-11.6
	c3.3,0,6.7,0.6,6.7,0.6v7.4h-3.8c-3.7,0-4.9,2.3-4.9,4.7v5.6H43l-1.3,8.6h-7v20.9C49,57.5,59.9,45.1,59.9,30.2
	C59.9,13.7,46.5,0.3,30,0.3z"/>
</svg>
