<svg enable-background="new 0 0 60 60" viewBox="0 0 60 60" xmlns="http://www.w3.org/2000/svg"><path d="m47.5 1.5h-35c-1.1 0-2 .9-2 2v43.5c0 6.35 5.15 11.5 11.5 11.5h25.5c1.1 0 2-.9 2-2v-53c0-1.1-.9-2-2-2zm-1 54h-24.5c-4.69 0-8.5-3.81-8.5-8.5v-42.5h33z"/><path d="m20.51 33.5h21c.28 0 .5-.22.5-.5v-2c0-.28-.22-.5-.5-.5h-23c-.28 0-.5.22-.5.5 0 1.38 1.12 2.5 2.5 2.5z"/><path d="m20.51 27.5h21c.28 0 .5-.22.5-.5v-2c0-.28-.22-.5-.5-.5h-23c-.28 0-.5.22-.5.5 0 1.38 1.12 2.5 2.5 2.5z"/><path d="m41.51 45.5h-23c-.28 0-.5.22-.5.5 0 1.38 1.12 2.5 2.5 2.5h21c.28 0 .5-.22.5-.5v-2c0-.28-.22-.5-.5-.5z"/><path d="m20.5 39.5h21c.28 0 .5-.22.5-.5v-2c0-.28-.22-.5-.5-.5h-23c-.28 0-.5.22-.5.5 0 1.38 1.12 2.5 2.5 2.5z"/><path d="m20.51 13.5h9.99c.28 0 .5-.22.5-.5v-2c0-.28-.22-.5-.5-.5h-11.99c-.28 0-.5.22-.5.5 0 1.38 1.12 2.5 2.5 2.5z"/></svg>