<?xml version="1.0" encoding="utf-8"?>
<!-- Generator: Adobe Illustrator 24.2.3, SVG Export Plug-In . SVG Version: 6.00 Build 0)  -->
<svg version="1.1" xmlns="http://www.w3.org/2000/svg" xmlns:xlink="http://www.w3.org/1999/xlink" x="0px" y="0px" width="159.1px"
	 height="38.8px" viewBox="0 0 159.1 38.8" style="enable-background:new 0 0 159.1 38.8;" xml:space="preserve">
<style type="text/css">
	.st0{fill-rule:evenodd;clip-rule:evenodd;fill:url(#path2588_1_);}
	.st1{fill-rule:evenodd;clip-rule:evenodd;fill:url(#path2594_1_);}
	.st2{fill-rule:evenodd;clip-rule:evenodd;fill:url(#path3415_1_);}
	.st3{fill-rule:evenodd;clip-rule:evenodd;fill:url(#path3417_1_);}
	.st4{fill-rule:evenodd;clip-rule:evenodd;fill:url(#path3435_1_);}
	.st5{fill-rule:evenodd;clip-rule:evenodd;fill:url(#path3437_1_);}
	.st6{fill-rule:evenodd;clip-rule:evenodd;fill:#FFFFFF;}
	.st7{fill:#FFFFFF;}
</style>
<g id="Ebene_2">
</g>
<g id="Ebene_1">
	<g id="layer2">
		
			<linearGradient id="path2588_1_" gradientUnits="userSpaceOnUse" x1="3.7913" y1="27.7077" x2="34.7797" y2="31.198" gradientTransform="matrix(1 0 0 -1 -2.100000e-06 39.8898)">
			<stop  offset="0" style="stop-color:#FFFFFF;stop-opacity:0.9"/>
			<stop  offset="1" style="stop-color:#FFFFFF"/>
		</linearGradient>
		<path id="path2588" class="st0" d="M32.8,14.3l1.8-7.1H0l6,7.1H32.8z"/>
		
			<linearGradient id="path2594_1_" gradientUnits="userSpaceOnUse" x1="91.2744" y1="96.9441" x2="97.3948" y2="90.9521" gradientTransform="matrix(1 0 0 -1 -91.1779 105.1648)">
			<stop  offset="0" style="stop-color:#FFFFFF;stop-opacity:0.9"/>
			<stop  offset="1" style="stop-color:#FFFFFF;stop-opacity:0.9"/>
		</linearGradient>
		<path id="path2594" class="st1" d="M0,9l5.5,5.3H6L0,7.2V9z"/>
		
			<linearGradient id="path3415_1_" gradientUnits="userSpaceOnUse" x1="-187.8479" y1="-6.6855" x2="-167.9585" y2="-2.4274" gradientTransform="matrix(1 0 0 -1 200.4878 13.9869)">
			<stop  offset="0" style="stop-color:#FFFFFF;stop-opacity:0.9"/>
			<stop  offset="1" style="stop-color:#FFFFFF"/>
		</linearGradient>
		<path id="path3415" class="st2" d="M14.6,22.6l-5.9-6.9h23.7l-1.7,6.9H14.6z"/>
		
			<linearGradient id="path3417_1_" gradientUnits="userSpaceOnUse" x1="-134.7174" y1="-27.6836" x2="-128.7191" y2="-34.6965" gradientTransform="matrix(1 0 0 -1 142.9835 -11.6568)">
			<stop  offset="0" style="stop-color:#FFFFFF;stop-opacity:0.9"/>
			<stop  offset="1" style="stop-color:#FFFFFF;stop-opacity:0.9"/>
		</linearGradient>
		<path id="path3417" class="st3" d="M14.2,22.6l-5.4-5.2v-1.7l5.9,6.9H14.2z"/>
		
			<linearGradient id="path3435_1_" gradientUnits="userSpaceOnUse" x1="-46.5751" y1="-31.1805" x2="-38.2333" y2="-27.1474" gradientTransform="matrix(1 0 0 -1 68.502 -2.6035)">
			<stop  offset="0" style="stop-color:#FFFFFF;stop-opacity:0.9"/>
			<stop  offset="1" style="stop-color:#FFFFFF"/>
		</linearGradient>
		<path id="path3435" class="st4" d="M24.3,31.4l-5.9-7h11.8l-1.8,7H24.3z"/>
		
			<linearGradient id="path3437_1_" gradientUnits="userSpaceOnUse" x1="-31.9186" y1="-23.6417" x2="-25.8505" y2="-30.7569" gradientTransform="matrix(1 0 0 -1 49.8197 1.0355)">
			<stop  offset="0" style="stop-color:#FFFFFF;stop-opacity:0.9"/>
			<stop  offset="1" style="stop-color:#FFFFFF;stop-opacity:0.9"/>
		</linearGradient>
		<path id="path3437" class="st5" d="M18.4,26.1l5.6,5.2h0.3l-5.9-7V26.1z"/>
		<path id="path3457" class="st6" d="M29.6,31.4h3.4l1.8-7h-3.4L29.6,31.4z"/>
		<path id="path3473" class="st6" d="M31.8,22.6h3.3l1.8-6.8h-3.4L31.8,22.6z"/>
		<path id="path3487" class="st6" d="M34,14.3h3.4l1.7-7h-3.4L34,14.3z"/>
		<path id="path3497" class="st7" d="M65.8,31.4c-1.6-0.4-2.5-1-3.1-2.4c-0.4-0.8-0.4-0.9-0.4-2.6c0-1.3,0.1-2.2,0.3-3.2
			c0.7-3.3,2.2-6.9,3.4-8.3c1.4-1.6,3.2-2.4,6.1-2.6c2.7-0.2,5,0.1,6.1,0.9c1.1,0.8,1.5,1.8,1.5,3.8c0,1.5-0.4,3.7-0.8,4.7
			c-0.5,1.1-0.4,1.1-6.2,1.1h-5l-0.1,0.5c-0.6,2.4-0.5,3.4,0.4,4c0.7,0.4,3.1,0.6,5,0.3c1.5-0.2,2.4-0.6,3.2-1.3
			c1-1,1.1-0.8,0.6,1.1c-0.8,3.2-1,3.5-2.4,3.9C73.5,31.6,67.1,31.7,65.8,31.4z M75.4,19.1c0.4-1.5,0.3-2.3-0.4-2.9
			c-1-0.9-3.4-0.9-4.7,0.1c-0.6,0.4-1.1,1.3-1.5,2.4l-0.3,0.9h3.4h3.4L75.4,19.1z M127.1,31.3c-1.4-0.4-2.1-0.9-2.7-2.1l-0.5-0.9
			l0-2c0-1.6,0.1-2.3,0.3-3.4c0.8-3.6,2.2-6.7,3.6-8.2c1.7-1.8,3.7-2.4,7.3-2.5c3.6,0,5.2,0.7,6,2.6c0.4,0.9,0.3,3.6-0.1,5.2
			c-0.4,1.5-0.7,2.3-1.1,2.5c-0.2,0.1-1.5,0.2-5.4,0.2l-5.1,0.1l-0.2,0.9c-0.3,1.2-0.3,2.3-0.1,2.8c0.1,0.3,0.5,0.5,0.9,0.7
			c0.6,0.3,0.8,0.3,2.7,0.3c2.9,0,4.1-0.3,5.3-1.4c0.5-0.5,0.9-0.7,0.9-0.5c0,0.3-1.1,4.2-1.3,4.5c-0.5,1-2,1.4-6.3,1.3
			C128.6,31.6,127.9,31.5,127.1,31.3z M137,18.8c0.5-2.4-0.4-3.4-2.9-3.2c-2,0.1-2.9,0.9-3.7,3.2c-0.1,0.4-0.3,0.8-0.3,0.8
			c0,0,1.5,0,3.3,0h3.3L137,18.8z M39.4,31.3c-0.3-0.3-0.2-1,0.2-2.6c2-7.6,5-19.5,5-19.9c0-0.3-0.1-0.5-0.3-0.7
			c-0.2-0.1-0.3-0.3-0.3-0.5c0-0.2,0.3-0.2,2.9-0.2c2.5,0,2.9,0,3.1,0.2c0.3,0.3,0.2,0.7-0.9,4.9c-0.5,2-0.9,3.6-0.9,3.7
			c0,0,1.6,0.1,3.6,0.1h3.5l0.1-0.3c0.2-0.4,1.7-6.4,1.8-7.1c0.1-0.4,0-0.6-0.3-0.8c-0.7-0.7-0.6-0.7,2.6-0.7c3.2,0,3.3,0,3.3,0.7
			c0,0.3-1.7,7-3.3,13.2c-1.9,7.3-2.2,8.7-2.1,9.1c0.1,0.2,0.2,0.4,0.3,0.5c0.1,0,0.2,0.2,0.2,0.3c0,0.2-0.4,0.2-2.9,0.2
			c-3.2,0-3.3,0-3.3-0.7c0-0.2,0.6-2.6,1.3-5.3c0.7-2.7,1.3-5,1.3-5.1c0-0.1-0.7-0.2-3.6-0.2l-3.6,0l-1.3,5
			c-0.7,2.7-1.2,5.1-1.2,5.2c0,0.1,0.1,0.4,0.3,0.6c0.2,0.2,0.3,0.4,0.3,0.5C45.2,31.5,39.6,31.5,39.4,31.3z M80.4,31.2
			c-0.1-0.1-0.2-0.3-0.2-0.4s1-4.1,2.2-8.8c2.1-8.1,2.2-8.7,2-9c-0.1-0.2-0.3-0.3-0.3-0.3c-0.1,0-0.1-0.1-0.1-0.2
			c0-0.2,0.4-0.2,2.6-0.2c3.4,0,3.3-0.1,2.7,2.3c-0.1,0.2,0.2,0,0.6-0.6c0.4-0.5,0.9-1.1,1.1-1.3l0.3-0.4h2.4c1.3,0,2.4,0,2.4,0.1
			c0,0.3-0.7,2.9-0.9,3.1c-0.3,0.5-0.8,0.6-2.9,0.6c-1.7,0-2.1,0.1-2.6,0.3c-1,0.5-1.1,0.9-2.8,7.4c-0.8,3.3-1.6,6.1-1.6,6.3
			c-0.1,0.3,0,0.5,0.3,0.8c0.2,0.2,0.3,0.4,0.3,0.5c0,0-1.2,0.1-2.6,0.1C81,31.4,80.6,31.4,80.4,31.2z M94.1,31.2
			c-0.1-0.1-0.2-0.3-0.2-0.4c0-0.1,1-4,2.2-8.6c1.2-4.7,2.2-8.6,2.2-8.8c0-0.2-0.1-0.4-0.3-0.6c-0.6-0.5-0.4-0.5,2.3-0.5
			c3.3,0,3.3,0,2.8,1.7c-0.1,0.4-0.2,0.7-0.2,0.8c0,0,0.3-0.2,0.5-0.6c1.4-2,1.6-2.1,4.7-2.1c2.2,0,2.3,0,3,0.4c0.8,0.4,1.2,1,1.4,2
			l0.1,0.4l0.7-1.1c1.1-1.7,1.2-1.7,4.3-1.7c2.3,0,2.5,0,3.2,0.3c0.4,0.2,0.8,0.4,0.9,0.6c0.4,0.4,0.6,1.2,0.6,1.9
			c0,0.4-0.7,3.5-1.8,8c-1,4.1-1.8,7.4-1.8,7.6c0,0.2,0.2,0.4,0.3,0.4c0.6,0.3,0.2,0.4-2.4,0.4c-2.8,0-3,0-3-0.6
			c0-0.2,0.7-3.2,1.6-6.7c0.9-3.5,1.6-6.6,1.6-6.8c0-1-0.8-1.4-2.4-1.3c-1.4,0.2-2.1,0.6-2.6,1.9c-0.2,0.6-3.1,11.3-3.2,12.2
			c-0.1,0.4,0,0.5,0.3,0.8c0.2,0.2,0.3,0.4,0.3,0.4c0,0-1.2,0.1-2.7,0.1c-2.7,0-2.9,0-2.9-0.7c0-0.2,0.7-3.2,1.6-6.6
			c0.9-3.5,1.6-6.6,1.6-6.9c0-1.1-1-1.5-2.6-1.2c-1.1,0.2-1.6,0.5-2,1.3c-0.4,0.7-3.5,12.3-3.5,13c0,0.2,0.1,0.5,0.3,0.6
			c0.1,0.1,0.3,0.2,0.3,0.3c0,0.1-0.6,0.2-2.6,0.2C94.8,31.4,94.3,31.4,94.1,31.2z M142.1,31.1c-0.2-0.3-0.2-0.5,0.4-2.6
			c0.5-1.8,0.6-2.3,0.8-2.3c0.1,0,0.3,0.1,0.4,0.3c0.2,0.5,0.7,0.7,1.9,0.9c1.5,0.2,5.3,0.1,5.9-0.2c0.6-0.3,1-0.8,1.2-1.6
			c0.2-0.7,0-1.1-0.4-1.4c-0.2-0.1-1.5-0.5-3-0.9c-3-0.8-3.7-1.2-4.2-2c-0.3-0.5-0.3-0.7-0.3-1.9c0.1-2.8,1.5-5.6,3.2-6.5
			c1.1-0.5,1.8-0.6,6.6-0.6h4.6l-0.3,1.2c-0.4,1.5-0.6,1.9-1,2.2c-0.2,0.1-1.3,0.2-3.5,0.2c-2.7,0.1-3.2,0.1-3.5,0.3
			c-0.5,0.3-0.7,0.7-0.8,1.3c-0.2,0.9,0.2,1.1,3.1,2c3.6,1.1,4.3,1.5,4.7,2.7c0.3,1.2-0.2,4.5-1.1,6.2c-0.6,1.2-1.2,1.9-2.3,2.4
			l-0.9,0.4l-5.6,0l-5.6,0L142.1,31.1z"/>
	</g>
</g>
</svg>
