<svg enable-background="new 0 0 60 60" viewBox="0 0 60 60" xmlns="http://www.w3.org/2000/svg"><path d="m41.67 3.45c-.12-1.1-1.11-1.89-2.21-1.77l-36.11 3.96c-1.1.12-1.89 1.11-1.77 2.21l4.38 39.96c.3 2.77 1.48 5.42 3.5 7.35 2.19 2.08 5 3.2 7.94 3.2.42 0 .85-.02 1.27-.07l26.67-2.92c1.1-.12 1.89-1.11 1.77-2.21zm-23.33 51.85c-2.26.25-4.47-.4-6.25-1.82-1.77-1.42-2.88-3.45-3.13-5.7l-4.29-39.27 34.13-3.74 5.23 47.71z"/><path d="m14.2 31.28 8.95-.98c1.1-.12 1.89-1.11 1.77-2.21l-1.6-14.58c-.12-1.1-1.11-1.89-2.21-1.77l-8.95.98c-1.1.12-1.89 1.11-1.77 2.21l1.61 14.58c.12 1.09 1.1 1.89 2.2 1.77zm6.25-16.45 1.38 12.59-6.96.76-1.38-12.59z"/><path d="m29.4 13.85 5.96-.65c.27-.03.47-.28.44-.55l-.22-1.99c-.03-.27-.28-.47-.55-.44l-7.95.87c-.27.03-.47.28-.44.55.15 1.37 1.38 2.36 2.76 2.21z"/><path d="m27.51 19.59c.15 1.37 1.38 2.36 2.76 2.21l5.96-.65c.27-.03.47-.28.44-.55l-.22-1.99c-.03-.27-.28-.47-.55-.44l-7.95.87c-.27.03-.47.28-.44.55z"/><path d="m28.34 27.21c.15 1.37 1.38 2.36 2.76 2.21l5.96-.65c.27-.03.47-.28.44-.55l-.22-1.99c-.03-.27-.28-.47-.55-.44l-7.95.87c-.27.03-.47.28-.44.55z"/><path d="m15.64 39.84 22.37-2.45c.27-.03.47-.28.44-.55l-.22-1.99c-.03-.27-.28-.47-.55-.44l-24.36 2.67c-.27.03-.47.28-.44.55.15 1.37 1.39 2.36 2.76 2.21z"/><path d="m14.23 45.36c-.27.03-.47.28-.44.55.15 1.37 1.38 2.36 2.76 2.21l22.37-2.45c.27-.03.47-.28.44-.55l-.22-1.99c-.03-.27-.28-.47-.55-.44z"/><path d="m56.5 4.17h-11c-.28 0-.5.22-.5.5 0 1.38 1.12 2.5 2.5 2.5h8v42h-2c-1.38 0-2.5 1.12-2.5 2.5 0 .28.22.5.5.5h5c1.1 0 2-.9 2-2v-44c0-1.11-.9-2-2-2z"/></svg>