<svg enable-background="new 0 0 60 60" viewBox="0 0 60 60" xmlns="http://www.w3.org/2000/svg"><path d="m56.5 7.5h-7v-.5-3.5c0-1.1-.9-2-2-2h-5c-1.1 0-2 .9-2 2v2.5 1.5h-21v-.5-3.5c0-1.1-.9-2-2-2h-5c-1.1 0-2 .9-2 2v3.5.5h-7c-1.1 0-2 .9-2 2v37.5c0 6.35 5.15 11.5 11.5 11.5h43.5c1.1 0 2-.9 2-2v-47c0-1.1-.9-2-2-2zm-13-1.5v-1.5h3v2.5 3.5h-3zm-30 1v-2.5h3v2.5 3.5h-3zm42 48.5h-42.5c-4.69 0-8.5-3.81-8.5-8.5v-27.52h51zm0-39.02h-51v-5.98h6v1c0 1.1.9 2 2 2h5c1.1 0 2-.9 2-2v-1h21v1c0 1.1.9 2 2 2h5c1.1 0 2-.9 2-2v-1h6z"/><path d="m17.29 49.29c.98.98 2.56.98 3.54 0l22.88-22.88c.2-.2.2-.51 0-.71l-1.41-1.41c-.2-.2-.51-.2-.71 0l-24.3 24.3c-.19.19-.19.51 0 .7z"/><path d="m22.5 35.5c3.31 0 6-2.69 6-6s-2.69-6-6-6-6 2.69-6 6 2.69 6 6 6zm0-9c1.65 0 3 1.35 3 3s-1.35 3-3 3-3-1.35-3-3 1.35-3 3-3z"/><path d="m38.5 39.5c-3.31 0-6 2.69-6 6s2.69 6 6 6 6-2.69 6-6-2.69-6-6-6zm0 9c-1.65 0-3-1.35-3-3s1.35-3 3-3 3 1.35 3 3-1.35 3-3 3z"/></svg>