<svg xml:space="preserve" style="enable-background:new 0 0 96.1 40.8;" viewBox="0 0 96.1 40.8" y="0px" x="0px" xmlns:xlink="http://www.w3.org/1999/xlink" xmlns="http://www.w3.org/2000/svg" id="A_Pay_Mark" version="1.1">
<path d="M18.2,5.3c1.1-1.4,1.9-3.3,1.7-5.3c-1.7,0.1-3.7,1.1-4.8,2.5c-1.1,1.2-2,3.2-1.7,5.1C15.1,7.7,17,6.6,18.2,5.3"></path>
<path d="M19.8,7.9c-2.7-0.2-5,1.5-6.3,1.5C12.3,9.5,10.3,8,8.2,8c-2.8,0-5.4,1.6-6.8,4.1c-2.9,5-0.8,12.4,2.1,16.5
	c1.4,2,3,4.2,5.2,4.2c2.1-0.1,2.9-1.3,5.4-1.3c2.5,0,3.2,1.3,5.4,1.3c2.3,0,3.7-2,5-4c1.6-2.3,2.2-4.5,2.3-4.6c0,0-4.4-1.7-4.4-6.7
	c0-4.2,3.4-6.1,3.5-6.3C23.9,8.3,20.9,8,19.8,7.9"></path>
<path d="M43.4,2.3c5.9,0,10,4,10,9.9c0,5.9-4.2,10-10.1,10h-6.5v10.3H32V2.3L43.4,2.3L43.4,2.3z M36.7,18.3h5.4c4.1,0,6.4-2.2,6.4-6
	c0-3.8-2.3-6-6.4-6h-5.4V18.3z"></path>
<path d="M54.5,26.3c0-3.9,3-6.2,8.2-6.5l6-0.4v-1.7c0-2.5-1.7-3.9-4.4-3.9c-2.6,0-4.3,1.3-4.7,3.2h-4.3c0.3-4,3.6-6.9,9.1-6.9
	c5.3,0,8.8,2.8,8.8,7.3v15.2h-4.3v-3.6h-0.1c-1.3,2.5-4.1,4-7,4C57.6,32.9,54.5,30.2,54.5,26.3z M68.8,24.3v-1.7l-5.4,0.3
	c-2.7,0.2-4.2,1.4-4.2,3.3c0,1.9,1.6,3.2,4,3.2C66.3,29.3,68.8,27.2,68.8,24.3z"></path>
<path d="M77.4,40.7V37c0.3,0.1,1.1,0.1,1.5,0.1c2.1,0,3.2-0.9,3.9-3.1c0,0,0.4-1.3,0.4-1.4l-8-22.1h4.9l5.6,17.9h0.1l5.6-17.9h4.8
	l-8.3,23.2c-1.9,5.3-4.1,7.1-8.6,7.1C78.8,40.8,77.7,40.7,77.4,40.7z"></path>
</svg>
