<svg xml:space="preserve" style="enable-background:new 0 0 96.4 37.8;" viewBox="0 0 96.4 37.8" y="0px" x="0px" xmlns:xlink="http://www.w3.org/1999/xlink" xmlns="http://www.w3.org/2000/svg" id="G_Pay_Mark" version="1.1">
<style type="text/css">
	.st0{fill:#3C4043;}
	.st1{fill:#4285F4;}
	.st2{fill:#34A853;}
	.st3{fill:#FABB05;}
	.st4{fill:#E94235;}
</style>
<g>
	<g id="G_Pay_Logo">
		<g id="Pay_Typeface_3_">
			<path d="M45,18.4v11.1h-3.5V2h9.4c2.4,0,4.4,0.8,6.1,2.4c1.7,1.6,2.5,3.5,2.5,5.8
				c0,2.3-0.8,4.3-2.5,5.8c-1.6,1.6-3.7,2.3-6.1,2.3L45,18.4L45,18.4z M45,5.4V15h5.9c1.4,0,2.6-0.5,3.5-1.4
				c0.9-0.9,1.4-2.1,1.4-3.4c0-1.3-0.5-2.4-1.4-3.3c-0.9-1-2.1-1.5-3.5-1.5L45,5.4L45,5.4z" class="st0" id="Letter_p_3_"></path>
			<path d="M68.7,10.1c2.6,0,4.7,0.7,6.2,2.1c1.5,1.4,2.3,3.3,2.3,5.7v11.6h-3.4v-2.6h-0.1
				c-1.5,2.2-3.4,3.2-5.8,3.2c-2.1,0-3.8-0.6-5.2-1.8c-1.4-1.2-2.1-2.8-2.1-4.6c0-2,0.7-3.5,2.2-4.6c1.5-1.2,3.4-1.7,5.9-1.7
				c2.1,0,3.8,0.4,5.2,1.2v-0.8c0-1.2-0.5-2.3-1.5-3.1c-1-0.9-2.1-1.3-3.4-1.3c-2,0-3.5,0.8-4.7,2.5l-3.1-2
				C62.8,11.3,65.3,10.1,68.7,10.1z M64.1,23.8c0,0.9,0.4,1.7,1.2,2.3C66.1,26.7,67,27,68,27c1.5,0,2.8-0.6,4-1.7
				c1.2-1.1,1.8-2.4,1.8-3.9c-1.1-0.9-2.6-1.3-4.6-1.3c-1.4,0-2.6,0.4-3.6,1C64.6,21.9,64.1,22.7,64.1,23.8z" class="st0" id="Letter_a_3_"></path>
			<path d="M96.4,10.7L84.6,37.8h-3.6l4.4-9.5l-7.8-17.6h3.9L87,24.2h0.1l5.5-13.5H96.4z" class="st0" id="Letter_y_3_"></path>
		</g>
		<g id="G_Mark_1_">
			<path d="M30.9,16.1c0-1.2-0.1-2.3-0.3-3.3H15.8v6.1l8.5,0c-0.3,2-1.5,3.7-3.2,4.9v3.9h5.1
				C29.2,25,30.9,20.9,30.9,16.1z" class="st1" id="Blue_500"></path>
			<path d="M21.2,23.8c-1.4,1-3.2,1.5-5.4,1.5c-4.1,0-7.6-2.8-8.9-6.5H1.7v4.1
				c2.6,5.2,7.9,8.7,14.1,8.7c4.3,0,7.8-1.4,10.5-3.8L21.2,23.8z" class="st2" id="Green_500_1_"></path>
			<path d="M6.4,15.8c0-1.1,0.2-2.1,0.5-3V8.7H1.7C0.6,10.8,0,13.2,0,15.8s0.6,5,1.7,7.1l5.2-4.1
				C6.6,17.8,6.4,16.8,6.4,15.8z" class="st3" id="Yellow_500_1_"></path>
			<path d="M15.8,6.2c2.3,0,4.4,0.8,6.1,2.4l4.5-4.5C23.6,1.6,20,0,15.8,0C9.6,0,4.3,3.5,1.7,8.7l5.2,4.1
				C8.2,9,11.7,6.2,15.8,6.2z" class="st4" id="Red_500"></path>
		</g>
	</g>
</g>
</svg>
