<svg id="Ebene_1" data-name="Ebene 1" xmlns="http://www.w3.org/2000/svg" viewBox="0 0 60 60"><title>Zeichenfläche 1</title><path d="M59.44,18.07c-.4-2.84-1.17-4.82-2.34-6A9.21,9.21,0,0,0,51,9.5L30,8.91q-12.69,0-21,.59a9.14,9.14,0,0,0-6.07,2.57,6.89,6.89,0,0,0-1.4,2.28,16.12,16.12,0,0,0-.82,2.52L.59,18.05A79.2,79.2,0,0,0,0,27.66v4.57l.59,9.68a10.82,10.82,0,0,0,2.34,6A7.61,7.61,0,0,0,4.4,49.09a6.11,6.11,0,0,0,1.59.7c.53.15,1.06.27,1.4.35s.83.12,1.34.24a3.74,3.74,0,0,0,.88.12L30,51.09q12.69,0,21-.59a9.49,9.49,0,0,0,6.07-2.58,6.93,6.93,0,0,0,1.4-2.35A17.47,17.47,0,0,0,59.29,43l.12-1A79.69,79.69,0,0,0,60,32.23V27.78ZM23.79,37.74V21L40,29.42Z"/></svg>