<svg enable-background="new 0 0 60 60" viewBox="0 0 60 60" xmlns="http://www.w3.org/2000/svg"><path d="m11.51 13.5h9.99c.28 0 .5-.22.5-.5v-2c0-.28-.22-.5-.5-.5h-11.99c-.28 0-.5.22-.5.5 0 1.38 1.12 2.5 2.5 2.5z"/><path d="m40 42c-1.38 0-2.5 1.12-2.5 2.5v11h-24.5c-4.69 0-8.5-3.81-8.5-8.5v-42.5h33v17c0 .28.22.5.5.5 1.38 0 2.5-1.12 2.5-2.5v-16c0-1.1-.9-2-2-2h-35c-1.1 0-2 .9-2 2v43.5c0 6.35 5.15 11.5 11.5 11.5h25.5c1.1 0 2-.9 2-2v-14c0-.28-.22-.5-.5-.5z"/><path d="m57.71 16.59-3.54-3.54c-.78-.78-2.05-.78-2.83 0l-24.14 24.14s0 0-.01 0 0 0 0 .01l-.89.89c-.17.17-.31.37-.41.59l-2.95 6.48c-.76 1.68.97 3.41 2.65 2.65l6.48-2.95c.22-.1.42-.24.59-.41l25.04-25.04c.79-.78.79-2.04.01-2.82zm-30.92 27.38 1.58-3.48 1.9 1.9zm5.71-3.59-2.12-2.12 22.38-22.38 2.12 2.12z"/><path d="m25 33v-2c0-.28-.22-.5-.5-.5h-14.99c-.28 0-.5.22-.5.5 0 1.38 1.12 2.5 2.5 2.5h12.99c.28 0 .5-.22.5-.5z"/><path d="m32 27v-2c0-.28-.22-.5-.5-.5h-21.99c-.28 0-.5.22-.5.5 0 1.38 1.12 2.5 2.5 2.5h19.99c.28 0 .5-.22.5-.5z"/><path d="m9.5 36.5c-.28 0-.5.22-.5.5 0 1.38 1.12 2.5 2.5 2.5h7c.28 0 .5-.22.5-.5v-2c0-.28-.22-.5-.5-.5z"/></svg>