<svg enable-background="new 0 0 60 60" viewBox="0 0 60 60" xmlns="http://www.w3.org/2000/svg"><g fill="#0050aa"><path d="m30.5 1.5c-.3 0-.5.2-.5.5v.1c0 1.3 1 2.4 2.3 2.5 13 1.2 23.2 12.1 23.2 25.4 0 14.5-12.2 26.3-26.9 25.5-6.4-.3-12.4-3.2-17-7.8l-1.2-1.2h5.9c1.4 0 2.5-1.1 2.5-2.5 0-.3-.2-.5-.5-.5h-11c-1.1 0-2 .9-2 2v11c0 .3.2.5.5.5 1.4 0 2.5-1.1 2.5-2.5v-5.9l1.1 1.1c5.1 5.1 11.8 8.3 19 8.7 16.5.9 30.1-12.2 30.1-28.4 0-15.5-12.5-28.2-28-28.5z"/><path d="m32 37.6c-.3 0-.6 0-.9-.1-.3 0-.6-.1-.8-.2-.1 0-.2 0-.3 0s-.1.1-.1.3l-.3 1.7v.3s.1.1.2.1c.3.1.7.2 1.1.3s.8.1 1.3.1c2.1 0 3.8-.7 4.9-2.1s1.7-3.4 1.7-6.1c0-2.3-.4-4-1.3-5.1s-2.1-1.7-3.8-1.7c-1.4 0-2.6.4-3.5 1.3s-1.3 2.1-1.3 3.6.4 2.7 1.1 3.5c.7.9 1.7 1.3 3 1.3.7 0 1.2-.1 1.7-.3s.8-.5 1.1-.9h.1c-.1 1.3-.5 2.3-1.1 3-.8.7-1.7 1-2.8 1zm2.7-5.2c-.4.2-.8.3-1.2.3-.7 0-1.2-.2-1.6-.7s-.5-1.1-.5-2c0-.8.2-1.3.5-1.8.4-.4.9-.6 1.5-.6.8 0 1.3.3 1.7 1 .4.6.6 1.7.6 3-.2.4-.6.6-1 .8z"/><path d="m45.9 40.2c1.7 0 3-.7 4-2s1.5-3.2 1.5-5.5c0-2.4-.5-4.2-1.5-5.5s-2.3-2-4-2-3 .7-4 2-1.5 3.2-1.5 5.5c0 2.4.5 4.2 1.5 5.5s2.3 2 4 2zm-1.9-11.2c.4-.8 1.1-1.3 1.9-1.3s1.4.4 1.9 1.3c.4.8.6 2.1.6 3.7s-.2 2.9-.6 3.7-1 1.2-1.9 1.2c-.8 0-1.4-.4-1.9-1.3-.4-.8-.7-2.1-.7-3.7.1-1.5.3-2.8.7-3.6z"/><path d="m19.6 40.2c.6.3 1.2.3 1.8 0l4.8-2.4c.2-.1.3-.4.2-.7-.6-1.2-2.1-1.7-3.4-1.1l-1 .6v-14.2l14.5-7.2v4.3c0 1.4 1.1 2.5 2.5 2.5.3 0 .5-.2.5-.5v-8.4c0-.8-.4-1.5-1.1-1.8l-17-8.5c-.6-.3-1.2-.3-1.8 0l-17 8.5c-.7.3-1.1 1-1.1 1.8v11c0 4.4 2.5 8.3 6.4 10.3zm15-27.4-14.1 7.1-5.4-2.7 14.1-7.1zm-14.1-7.1 5.4 2.7-14.1 7.1-5.4-2.7zm-16 18.4v-8.9l14.5 7.2v14.1l-9.8-4.9c-2.9-1.4-4.7-4.3-4.7-7.5z"/></g></svg>