<svg id="DPD_Black" data-name="DPD Black" xmlns="http://www.w3.org/2000/svg" viewBox="0 0 1942.48 850.39"><defs><style>.cls-1{fill:#fff;}</style></defs><path class="cls-1" d="M1625.84,990.42c-36.68,9.7-84.44,14.51-126,14.51-106.6,0-177.19-56.73-177.19-160.56,0-98.27,65.75-161.93,162-161.93,21.45,0,44.28,2.73,58.13,9.68V549.47h83.06Zm-83.06-224.95c-13.15-6.22-30.45-9.69-51.25-9.69-50.48,0-84.41,31.16-84.41,85.83,0,58.84,36.67,92.08,95.51,92.08,10.38,0,26.3-.72,40.15-3.47Zm764.6,224.95c-36.7,9.7-84.46,14.51-126,14.51-106.58,0-177.2-56.73-177.2-160.56,0-98.27,65.77-161.93,162-161.93,21.45,0,44.3,2.73,58.15,9.68V549.47h83.05Zm-83.05-224.95c-13.17-6.22-30.48-9.69-51.24-9.69-50.52,0-84.43,31.16-84.43,85.83,0,58.84,36.68,92.08,95.51,92.08,10.37,0,26.31-.72,40.16-3.47Zm-467.88-.68c13.83-5.54,33.19-7.6,49.8-7.6,51.23,0,86.53,29.75,86.53,83,0,62.85-39.1,91.27-91.38,92v72.66c1.37,0,2.76,0,4.18,0,107.26,0,171.65-60.2,171.65-167.47,0-97.59-68.52-155-169.58-155-51.2,0-101.75,11.77-135,25.6v414.61h83.76Z" transform="translate(-364.9 -364.9)"/><path class="cls-1" d="M871.9,744.43a12.86,12.86,0,0,1-12.18-.23L840,732.47a12.92,12.92,0,0,1-4.2-4.51l-.2-.34a13.12,13.12,0,0,1-2.05-6.22l-.5-23a12.85,12.85,0,0,1,5.86-10.62l237.37-138.29L743.16,367.93a30.95,30.95,0,0,0-26.71,0L383.35,549.48,756.51,766.71a12.69,12.69,0,0,1,6.09,10.43V1094a12.89,12.89,0,0,1-6.33,10.41l-20.09,11.15a12.93,12.93,0,0,1-6,1.37h-.38a13,13,0,0,1-6.41-1.37l-20.15-11.15A12.85,12.85,0,0,1,697,1094V811.54a7.92,7.92,0,0,0-3.36-5.54L364.9,614.62V989.47c0,8.39,5.91,18.74,13.16,23l338.6,199.69a28.94,28.94,0,0,0,26.3,0l338.64-199.69c7.22-4.29,13.12-14.58,13.11-23V614.62Z" transform="translate(-364.9 -364.9)"/></svg>