<svg id="PayPal" xmlns="http://www.w3.org/2000/svg" viewBox="0 0 60 18.62"><title>Zeichenfläche 2</title><path d="M41,5.61c-.25,1.88-1.53,1.88-2.77,1.88h-.7L38,4a.4.4,0,0,1,.38-.37h.32c.84,0,1.64,0,2,.54A1.91,1.91,0,0,1,41,5.61ZM40.49.71H35.82a.68.68,0,0,0-.64.61l-1.89,13.4a.42.42,0,0,0,.38.5h2.4a.47.47,0,0,0,.45-.43l.54-3.8a.68.68,0,0,1,.64-.61h1.48c3.07,0,4.85-1.67,5.31-5A4.41,4.41,0,0,0,43.89,2,4.07,4.07,0,0,0,40.49.71Z" style="fill:#469bdb"/><path d="M51.32,10.42a2.59,2.59,0,0,1-2.52,2.39,1.79,1.79,0,0,1-1.5-.68,2.33,2.33,0,0,1-.35-1.76A2.61,2.61,0,0,1,49.45,8a1.79,1.79,0,0,1,1.49.68A2.35,2.35,0,0,1,51.32,10.42Zm3.12-4.87H52.2a.4.4,0,0,0-.38.37l-.1.7-.16-.25a3,3,0,0,0-2.64-1c-2.47,0-4.58,2.1-5,5a5.16,5.16,0,0,0,.83,3.85,3.32,3.32,0,0,0,2.81,1.27A4.11,4.11,0,0,0,50.68,14l-.1.7a.42.42,0,0,0,.38.5h2a.68.68,0,0,0,.64-.61l1.21-8.57A.42.42,0,0,0,54.44,5.55Z" style="fill:#469bdb"/><path d="M57.07,1.08,55.16,14.73a.42.42,0,0,0,.38.5h1.93a.67.67,0,0,0,.64-.61L60,1.22a.42.42,0,0,0-.38-.5H57.46a.41.41,0,0,0-.38.37" style="fill:#469bdb"/><path d="M18,10.42a2.59,2.59,0,0,1-2.52,2.39,1.79,1.79,0,0,1-1.5-.68,2.33,2.33,0,0,1-.35-1.76A2.61,2.61,0,0,1,16.17,8a1.79,1.79,0,0,1,1.49.68A2.36,2.36,0,0,1,18,10.42Zm3.12-4.87H18.92a.41.41,0,0,0-.38.37l-.1.7-.16-.25a3,3,0,0,0-2.64-1c-2.47,0-4.58,2.1-5,5a5.15,5.15,0,0,0,.83,3.85,3.32,3.32,0,0,0,2.81,1.27A4.11,4.11,0,0,0,17.39,14l-.1.7a.42.42,0,0,0,.38.5h2a.68.68,0,0,0,.64-.61l1.21-8.57A.42.42,0,0,0,21.15,5.55Z" style="fill:#283b82"/><path d="M33.05,5.55H30.81a.63.63,0,0,0-.54.32L27.17,11,25.86,6.07a.66.66,0,0,0-.62-.52H23a.43.43,0,0,0-.37.58l2.47,8.13-2.33,3.68a.44.44,0,0,0,.32.69h2.24a.63.63,0,0,0,.53-.31L33.37,6.23a.44.44,0,0,0-.32-.68" style="fill:#283b82"/><path d="M10.6,1.69A4.27,4.27,0,0,0,7.2,0H2.53c-.32,0-.59.62-.64,1L0,14.44c0,.26.15.56.38.56H2.62a.58.58,0,0,0,.64-.5l.51-3.75c0-.35.32-.75.64-.75H5.89q4.61,0,5.31-5A4.37,4.37,0,0,0,10.6,1.69ZM7.74,5.37C7.48,7.24,6.2,7,5,7h-.7l.49-3.57c0-.21.19-.43.38-.43h.32a2.52,2.52,0,0,1,2,.72A2.44,2.44,0,0,1,7.74,5.37Z" style="fill:#283b82"/></svg>