<svg id="mastercard" xmlns="http://www.w3.org/2000/svg" viewBox="0 0 97.06 60"><title>mastercard</title><rect x="34.1" y="6.42" width="28.88" height="47.16" style="fill:#ff5f00"/><path d="M37.07,30A30,30,0,0,1,48.53,6.42a30,30,0,1,0,0,47.17A29.94,29.94,0,0,1,37.07,30Z" style="fill:#eb001b"/><path d="M94.19,48.59v-1h.42v-.2h-1v.2H94v1Zm1.93,0V47.42h-.3l-.35.84-.35-.84h-.3v1.17H95v-.88l.33.76h.22l.33-.76v.88Z" style="fill:#f79e1b"/><path d="M97.06,30A30,30,0,0,1,48.53,53.58a30,30,0,0,0,0-47.16A30,30,0,0,1,97.06,30Z" style="fill:#f79e1b"/></svg>