<svg xmlns="http://www.w3.org/2000/svg" height="52.03" width="398.03"><g fill="#231f20"><path d="M391.88 15.16c.76 0 1.15-.32 1.15-1 0-.68-.38-1-1.24-1h-.22v2zm2.67 3.95h-1.2l-1.78-2.6v2.6h-.98v-6.9h1.17c.72 0 1.13.11 1.51.39.49.32.76.9.76 1.58 0 1.04-.58 1.73-1.58 1.9zm-6.15-6.82a4.97 4.97 0 107.39 6.64 4.97 4.97 0 00-7.4-6.64zm9.63 3.3a5.93 5.93 0 11-11.86.03 5.93 5.93 0 0111.86-.02M0 38.14a22.55 22.55 0 006.84 4.2C9.55 43.46 12.24 44 14.9 44c2.06 0 3.98-.4 5.76-1.24a5 5 0 003.04-4.1c.35-2.05-.24-3.6-1.77-4.66a79.6 79.6 0 00-7.74-4.4c-3.64-1.88-6.28-3.91-7.94-6.1-1.65-2.17-2.2-5.17-1.65-8.98a16.76 16.76 0 017.3-10.9C15.68 1.2 20.25 0 25.56 0c2.3 0 4.46.17 6.47.52 2 .35 3.94.93 5.8 1.73l-1.44 8.8c-3.2-2.35-6.54-3.53-10-3.53a9.6 9.6 0 00-4.74 1.16c-1.4.78-2.26 2-2.56 3.65-.25 1.56.12 2.7 1.1 3.46.97.75 2.66 1.68 5.07 2.78 2.2 1 4.04 1.95 5.5 2.82 1.44.88 2.65 1.82 3.6 2.82 3.16 3.26 4.41 7.05 3.76 11.36-.8 5.11-3.46 9.18-7.97 12.18-4.01 2.61-9.08 3.92-15.2 3.92-5.06 0-9.77-.9-14.13-2.71L0 38.14M53.37 41.71a36.25 36.25 0 00-.6 5.7c.02 1.18.64 2.21 1.86 3.1v.19H37.61v-.2c1.52-.88 2.47-1.9 2.85-3.06.38-1.16.78-3.07 1.2-5.73l3.8-23.6c.42-2.74.61-4.7.57-5.89-.04-1.18-.66-2.17-1.84-2.97v-.19h17.03v.2a5.83 5.83 0 00-2.85 3.15 36.32 36.32 0 00-1.2 5.7l-3.8 23.6M72.16 43.55c1.44.71 3.59 1.07 6.46 1.07 3.54 0 6.68-.93 9.42-2.78l-3.8 8.86H56.67v-.2c1.52-.88 2.47-1.9 2.85-3.06.38-1.16.78-3.07 1.2-5.73l3.8-23.6c.42-2.74.6-4.7.57-5.89-.05-1.18-.66-2.17-1.84-2.97v-.19h17.02v.2a6 6 0 00-1.96 1.76 7.99 7.99 0 00-1.14 2.09c-.21.63-.39 1.36-.54 2.18-.15.83-.3 1.79-.47 2.88l-3.99 25.38M116.46 17.1a15.37 15.37 0 001.45-3.67c.3-1.65-.4-3.04-2.09-4.18v-.19h11.33v.2l-21.39 42.77c-3.75-1.27-6.24-2.32-7.46-3.17a10.7 10.7 0 01-2.47-2.09 8.07 8.07 0 01-1.3-2.27c-.32-.85-.6-1.92-.85-3.23l-5.45-26.51c-.5-2.58-1.24-4.41-2.21-5.5v-.2h14.3v.2l-.13.3c-.12 1.02.15 3.4.83 7.16L105.38 40l11.08-22.9M136.52 43.67c1.51.64 3.67.95 6.45.95 4.26 0 7.53-1.16 9.8-3.48h.32l-4.04 9.56H121v-.2c1.52-.88 2.47-1.9 2.85-3.06.38-1.16.78-3.07 1.2-5.73l3.8-23.66c.42-2.75.61-4.7.57-5.86-.04-1.16-.66-2.14-1.84-2.94v-.19h22.15c1.3 0 2.22-.1 2.72-.32h.2l-1.46 9.18h-.2c-.54-1.27-1.4-2.03-2.59-2.28a27.92 27.92 0 00-5.38-.38h-2.02l-1.65 10.25h5.89c1.1 0 1.9-.1 2.4-.31h.32l-1.4 8.86h-.31c-.21-1.1-.77-1.75-1.68-1.97a20 20 0 00-4.14-.31h-2.09l-1.83 11.9M172.65 15.2l-2.28 14.3a10.02 10.02 0 005.38-2.85 9.18 9.18 0 002.72-5.19c.38-2.4-.17-4.2-1.65-5.38-.71-.59-1.9-.88-3.54-.88zm-4.18 26.45c-.38 2.07-.6 3.45-.66 4.14-.07.7 0 1.51.22 2.44.2.93.76 1.69 1.64 2.28v.19h-17.02v-.2a6.25 6.25 0 002.88-3.22c.44-1.27.86-3.14 1.24-5.63l3.73-23.54c.42-2.74.6-4.7.57-5.89-.04-1.18-.66-2.17-1.84-2.97v-.19h18.73c1.99 0 3.55.06 4.69.2 1.13.12 2.34.54 3.6 1.26a8.37 8.37 0 013.55 3.92c.71 1.64.88 3.54.5 5.7-.3 2.19-1.3 4.17-3 5.94a17.02 17.02 0 01-6.1 4.05l5.56 12.6c1.52 3.45 3.14 5.99 4.87 7.59l-8.8.57c-2.32.12-4-.08-5.06-.6-1.05-.53-1.98-1.74-2.78-3.64l-5.13-13.8-1.39 8.8M241.04 11.51a19.34 19.34 0 00-11.96-3.9c-4.81 0-8.47 1.6-10.98 4.84-2.5 3.24-4.19 7.41-5.04 12.52-.85 5.47-.17 9.97 2.03 13.5 2.2 3.54 5.97 5.3 11.28 5.3 4.72 0 10.38-1.62 17-4.88l-5.49 10.98a59.92 59.92 0 01-15.27 1.8c-4.2 0-7.82-.46-10.83-1.39-3-.92-5.76-2.62-8.27-5.07-5.12-4.97-7.05-11.51-5.8-19.63a29.5 29.5 0 013.77-10.38 28.92 28.92 0 017.45-8.5c3-2.3 6.42-4 10.26-5.08A43.33 43.33 0 01230.96.01l11.2.97-1.12 10.53"/><path d="M261.52 15.2l-2.28 14.3a10.01 10.01 0 005.38-2.85 9.16 9.16 0 002.72-5.19c.38-2.4-.17-4.2-1.65-5.38-.71-.59-1.9-.88-3.54-.88zm-4.18 26.45c-.38 2.07-.6 3.45-.66 4.14-.07.7 0 1.51.22 2.44.21.93.76 1.69 1.65 2.28v.19h-17.03v-.2a6.25 6.25 0 002.88-3.22c.44-1.27.86-3.14 1.24-5.63l3.73-23.54c.42-2.74.61-4.7.57-5.89-.04-1.18-.66-2.17-1.84-2.97v-.19h18.73c1.99 0 3.55.06 4.69.2 1.13.12 2.34.54 3.6 1.26a8.37 8.37 0 013.55 3.92c.71 1.64.88 3.54.5 5.7-.3 2.19-1.3 4.17-3 5.94a17 17 0 01-6.11 4.05l5.57 12.6c1.52 3.45 3.14 5.99 4.87 7.59l-8.8.57c-2.31.12-4-.08-5.06-.6-1.05-.53-1.98-1.74-2.78-3.64l-5.13-13.8-1.39 8.8M296.26 43.67c1.52.64 3.67.95 6.45.95 4.26 0 7.53-1.16 9.81-3.48h.32l-4.05 9.56h-28.04v-.2c1.52-.88 2.47-1.9 2.85-3.06.38-1.16.78-3.07 1.2-5.73l3.8-23.66c.42-2.75.61-4.7.57-5.86-.04-1.16-.65-2.14-1.83-2.94v-.19h22.14c1.3 0 2.22-.1 2.72-.32h.2l-1.46 9.18h-.2c-.54-1.27-1.4-2.03-2.59-2.28a27.94 27.94 0 00-5.37-.38h-2.03l-1.64 10.25h5.88c1.1 0 1.9-.1 2.4-.31h.32l-1.4 8.86h-.3c-.22-1.1-.78-1.75-1.68-1.97-.91-.2-2.3-.31-4.15-.31h-2.09l-1.83 11.9M313.85 40.13a19 19 0 005.76 3.54c2.28.93 4.53 1.4 6.77 1.4 1.73 0 3.34-.35 4.84-1.05a4.2 4.2 0 002.56-3.45c.3-1.73-.2-3.03-1.49-3.92a67.55 67.55 0 00-6.51-3.7c-3.06-1.58-5.29-3.3-6.68-5.13-1.4-1.83-1.86-4.35-1.4-7.56a14.09 14.09 0 016.14-9.18c3.21-2.02 7.05-3.03 11.52-3.03 1.94 0 3.76.15 5.45.44 1.68.3 3.3.78 4.87 1.46l-1.2 7.4a14.04 14.04 0 00-8.42-2.97c-1.48 0-2.8.32-3.99.98a4.18 4.18 0 00-2.15 3.07c-.21 1.3.1 2.27.92 2.9a24 24 0 004.27 2.35c1.86.84 3.4 1.63 4.62 2.37 1.22.74 2.23 1.53 3.04 2.37a10.79 10.79 0 013.16 9.56c-.67 4.3-2.91 7.72-6.7 10.25-3.38 2.2-7.64 3.29-12.79 3.29-4.26 0-8.23-.76-11.9-2.28l-.7-9.11M367.2 41.52a25.54 25.54 0 00-.36 5.41 5.9 5.9 0 001.68 3.58v.19h-17.15v-.2a6.25 6.25 0 002.88-3.22c.45-1.27.86-3.14 1.24-5.63l3.98-25.44a13.9 13.9 0 00-3.1-.25c-2.49 0-5 .78-7.53 2.34l-.5.32 4.05-9.75 1.13.2h29.37l-3.67 9.55c-.51-1.86-2.1-2.79-4.75-2.79-1.27 0-2.36.13-3.3.38l-3.98 25.31"/></g></svg>