<svg xmlns="http://www.w3.org/2000/svg" height="122.25" width="459.12"><path d="M423.37 77.04c-1.62-.75-1.8-.83-1.8-2.66v-26.1c0-2.03.07-4.08.13-6.06.07-2.04.13-4.15.13-6.29 0-6.8-3.81-10.86-10.2-10.86-3.55 0-34.64.35-34.64 12.56 0 4.8 3.18 6.53 5.07 7.57 1.55.84 2.13 1.16 2.38 2.72.51 3.3.5 7.71.48 11.61v1.86c0 .66 0 1.38.02 2.15.08 3.86.2 9.7-1.9 11.82-.37.38-1.04.88-2.59.88-1.84 0-3.8-.74-3.8-9.66V33.6c0-2.34 0-8.53-7.62-8.53-.09 0-8.9.06-17.76 1.27-8.42 1.15-19.6 3.54-19.6 11.02 0 5.65 3.21 7.2 5.13 8.14 1.8.87 3.83 1.86 3.83 11.6l-.02 4.2c-.1 12.58-.2 24.46 7.19 31.9 4.32 4.34 10.54 6.46 19.02 6.46 8.7 0 14.35-4 17.73-6.38l.82-.57c.37 2.66 1.85 6.95 9.63 6.95 3.18 0 11.16-.51 18.64-2.46 10-2.59 15.08-6.77 15.08-12.43 0-5.23-3.48-6.85-5.35-7.73zM197.53 64c0-3.88-.58-12.9-5.9-12.9-.73 0-.94.06-.97.07-1.07 1.17-1.67 8.56-1.67 21.92 0 1.82 0 2.25 3.03 2.25 1.65 0 5.5 0 5.5-11.34zm138.6 24.02c0 11.66-16.86 11.66-22.4 11.66l-2.62-.01h-2.65c-4.2 0-9.62-.15-14.35-1.36-5.12-1.31-7.87-3.51-9.28-5.85-4.52 7.2-18.59 7.21-24.5 7.21-19.06 0-26.84-3.41-26.84-11.77 0-4.44 2.93-6.6 4.87-8.03 1.2-.89 1.96-1.47 2.25-2.23 1.38-3.7 1.7-21.62.44-25.87-.14-.52-.5-.78-2-1.54-1.3-.66-3.27-1.67-4.6-3.64a43.05 43.05 0 012.34 13.9c0 9.6-3.4 19.35-9.33 26.76-6.61 8.26-15.7 12.81-25.57 12.81-4.63 0-9.04-1.55-11.86-2.58.02 3.34 1 3.93 2.93 5.09 1.92 1.14 5.12 3.05 5.12 7.93 0 7.47-7.46 11.76-20.47 11.76-19.42 0-34.63-7.28-34.63-16.57 0-5.46 3.42-7.12 5.46-8.12 1.4-.67 2.04-1.02 2.53-2.1 1-2.08 1.49-5.64 1.49-19.4v-7.14c0-9.43-.4-13.16-.65-14.59l-.52-.1c-2.68-.56-8.96-1.87-8.96-9.98 0-13.01 32.04-19.18 39.95-19.18 5.13 0 6.62 2.84 7.05 5.15 3.7-2.18 9.9-5.54 17.76-5.54 12.42 0 21.5 8.14 26.15 18.78-.08-.52-.14-1.08-.14-1.68 0-7.22 10.55-11.49 20.51-13.9-1.59.15-3.06.21-4.32.21-8.9 0-14.89-4.99-14.89-12.42C234.4 3.72 254.46.01 261.76.01c9.83 0 16.19 4.62 16.19 11.77 0 4.2-2.11 9.95-12.14 13.54-.55.2-1.1.38-1.66.55 3.98-.58 6.73-.8 6.83-.8 5.05 0 7.62 3.13 7.62 9.3v36.24c0 7.17 1.64 8.17 3.23 9.14.99.6 2.37 1.47 3.33 3.08a10.44 10.44 0 013.51-2.38c1.48-.7 1.89-.95 2.14-1.72 1.5-4.78 1.5-21.37 1.5-26.82l.02-2.45c.03-5.11.08-12.84-.85-17.5-.69-3.39-2.1-4.22-4.06-5.38-2.23-1.33-5.62-3.33-5.62-8.95C281.8 1.88 320.58 0 320.98 0c3.37 0 9.04 1.34 9.04 10.34 0 1-.13 2.77-.34 5.46-.5 6.46-1.35 17.27-1.35 30.38v26.24c-.01 1.86-.04 5.32.36 6.6.15.5.31.64 1.8 1.27 1.97.85 5.64 2.42 5.64 7.71zm-189.21-3.24c0-5.23-3.48-6.85-5.35-7.73-1.62-.75-1.8-.83-1.8-2.66v-26.1c0-2.03.07-4.08.13-6.06.06-2.04.13-4.15.13-6.29 0-6.8-3.82-10.86-10.2-10.86-3.55 0-34.64.35-34.64 12.56 0 4.8 3.18 6.53 5.07 7.57 1.55.84 2.13 1.16 2.38 2.72.51 3.3.5 7.7.48 11.58v1.9c0 .65 0 1.37.02 2.14.08 3.86.2 9.7-1.9 11.82-.37.38-1.04.88-2.59.88-1.84 0-3.81-.74-3.81-9.66V33.6c0-2.34 0-8.53-7.62-8.53-.08 0-8.89.06-17.76 1.27-8.4 1.15-19.6 3.54-19.6 11.02 0 5.65 3.22 7.2 5.14 8.14 1.79.87 3.82 1.86 3.82 11.6 0 1.4 0 2.81-.02 4.2-.1 12.58-.19 24.46 7.2 31.9 4.3 4.34 10.53 6.46 19.01 6.46 8.7 0 14.36-4 17.74-6.38l.81-.57c.37 2.66 1.86 6.95 9.64 6.95 3.17 0 11.16-.51 18.64-2.46 10-2.59 15.08-6.77 15.08-12.43zM54.32 88c0 11.66-16.86 11.66-22.4 11.66l-2.62-.01h-2.65c-4.2 0-9.6-.15-14.34-1.36-8.78-2.26-10.62-7.12-10.62-10.8 0-4.62 3.37-6.2 5.18-7.05 1.48-.69 1.88-.95 2.13-1.72 1.52-4.78 1.52-21.37 1.52-26.82v-2.43c.04-5.12.09-12.85-.84-17.52-.69-3.39-2.1-4.22-4.06-5.38C3.38 25.25 0 23.25 0 17.63 0 1.88 38.78 0 39.18 0c3.37 0 9.04 1.34 9.04 10.34 0 1-.14 2.77-.35 5.46-.5 6.46-1.34 17.27-1.34 30.38v26.23c-.02 1.87-.04 5.33.36 6.6.15.5.3.65 1.8 1.28 1.96.85 5.63 2.42 5.63 7.71" fill="#fff"/><path d="M441.9 30.64h1.63c2.03 0 3.6-.65 3.6-2.35 0-1.38-.98-2.42-3.34-2.42-.85 0-1.44 0-1.9.06zm0 9.44h-3.48V23.7c1.31-.2 2.75-.45 5.25-.45 2.81 0 4.51.45 5.63 1.3.91.72 1.44 1.84 1.44 3.53 0 1.98-1.37 3.35-3.14 3.81v.13c1.43.26 2.36 1.57 2.61 4 .34 2.54.66 3.53.93 4.06h-3.61c-.4-.6-.66-2.04-.98-4.26-.27-1.77-1.31-2.49-3.08-2.49h-1.58zm2.49-20.37c-6.17 0-11.14 5.3-11.14 11.85 0 6.62 4.97 11.8 11.2 11.8 6.22.06 11.27-5.18 11.27-11.8 0-6.55-5.05-11.85-11.27-11.85zm.12-2.95c8.13 0 14.62 6.61 14.62 14.73 0 8.26-6.5 14.81-14.68 14.81a14.74 14.74 0 01-14.74-14.8c0-8.13 6.62-14.74 14.74-14.74h.06M373.05 66.58c0 5.2.4 13.25 7.4 13.25 9.35 0 8.05-12.2 8.05-18.44 0-4.28.13-9.87-.51-14.02-1.04-6.5-7.4-4.3-7.4-9.74 0-7.67 26.1-8.97 31.04-8.97 4.67 0 6.61 2.73 6.61 7.27 0 4.17-.25 8.19-.25 12.35v26.1c0 7.8 7.14 4.15 7.14 10.39 0 8.83-22.99 11.3-30.13 11.3-10 0-3.38-7.8-8.57-7.8-2.99 0-8.18 7.8-19.61 7.8-24.67 0-22.6-19.48-22.6-38.96 0-19.88-8.96-11.18-8.96-19.75 0-8.3 32.73-8.7 33.76-8.7 3.64 0 4.03 1.69 4.03 4.94v32.98" fill="#ed127c"/><path d="M324.74 71.39c0 2.34-.13 6.62.52 8.7 1.43 4.68 7.28 2.47 7.28 7.92 0 8.7-15.85 8.06-21.43 8.06-5.85 0-24.03.64-24.03-8.57 0-4.55 5.59-2.86 7.14-7.67 1.69-5.33 1.69-21.56 1.69-27.92 0-5.07.26-14.8-.9-20.65-1.95-9.61-9.62-6.23-9.62-13.63 0-11.3 33.77-14.03 35.59-14.03 4.42 0 5.45 2.85 5.45 6.75 0 2.99-1.69 17.28-1.69 35.84v25.2" fill="#f68712"/><path d="M249.29 24.5c-5.46 0-11.3-2.46-11.3-8.83 0-8.56 17.15-12.07 23.77-12.07 5.19 0 12.6 1.69 12.6 8.18 0 10.13-17.67 12.72-25.07 12.72M275 70.6c0 15.34 7.67 9.75 7.67 16.63 0 8.84-16.5 8.84-22.34 8.84-22.34 0-23.25-5.07-23.25-8.18 0-4.68 5.33-4.94 6.88-8.97 1.7-4.54 1.95-23.38.53-28.18-1.17-4.55-7.8-3.11-7.8-8.96 0-9.21 33-13.12 34.29-13.12 3.9 0 4.02 2.99 4.02 5.72V70.6" fill="#b2db18"/><path d="M191.64 47.5c-4.68 0-6.24 1.94-6.24 25.58 0 4.28 2.08 5.84 6.62 5.84 8.05 0 9.1-8.7 9.1-14.93 0-6.24-1.3-16.5-9.48-16.5m-35.59 21.43c0-13.63-.78-16.62-1.43-17.28-1.69-1.68-8.7 0-8.7-7.39 0-8.83 26.75-15.59 36.36-15.59 3.12 0 3.64 1.04 3.64 3.9 0 .91.13 2.73 1.43 2.73 1.81 0 9.09-7.02 19.74-7.02 17 0 26.1 17.02 26.1 32.21 0 17.4-12.34 35.98-31.3 35.98-6.1 0-12.2-3.25-13.37-3.25-1.83 0-2.08 2.72-2.08 4.16 0 9.87 8.05 6.75 8.05 13.11 0 7.28-11.82 8.18-16.88 8.18-17.4 0-31.04-6.37-31.04-12.98 0-5.84 5.32-3.64 7.66-8.7 1.3-2.73 1.82-6.5 1.82-20.92v-7.14" fill="#00a650"/><path d="M91.25 66.58c0 5.2.39 13.25 7.4 13.25 9.35 0 8.05-12.2 8.05-18.44 0-4.28.14-9.87-.52-14.02-1.03-6.5-7.4-4.3-7.4-9.74 0-7.67 26.1-8.97 31.04-8.97 4.67 0 6.62 2.73 6.62 7.27 0 4.17-.25 8.19-.25 12.35v26.1c0 7.8 7.14 4.15 7.14 10.39 0 8.83-22.99 11.3-30.13 11.3-10 0-3.38-7.8-8.58-7.8-2.98 0-8.18 7.8-19.6 7.8-24.68 0-22.6-19.48-22.6-38.96 0-19.88-8.96-11.18-8.96-19.75 0-8.3 32.72-8.7 33.76-8.7 3.65 0 4.03 1.69 4.03 4.94v32.98" fill="#00adef"/><path d="M42.94 71.39c0 2.34-.13 6.62.52 8.7 1.43 4.68 7.27 2.47 7.27 7.92 0 8.7-15.84 8.06-21.43 8.06-5.84 0-24.02.64-24.02-8.57 0-4.55 5.58-2.86 7.14-7.67 1.69-5.33 1.69-21.56 1.69-27.92 0-5.07.26-14.8-.9-20.65-1.96-9.61-9.62-6.23-9.62-13.63C3.6 6.33 37.36 3.6 39.18 3.6c4.42 0 5.45 2.85 5.45 6.75 0 2.99-1.7 17.28-1.7 35.84v25.2" fill="#2e3192"/></svg>