<svg enable-background="new 0 0 60 60" viewBox="0 0 60 60" xmlns="http://www.w3.org/2000/svg"><g fill="#0050aa"><path d="m56.8 5.5-26.5-4c-.2 0-.4 0-.6 0l-26.5 4c-1 .1-1.7 1-1.7 2v5.1c0 1.1.9 2 2 2h1v9c0 .2.2.4.5.4 1.4 0 2.5-1.1 2.5-2.5v-7h45v32h-7c-1.4 0-2.5 1.1-2.5 2.5 0 .3.2.5.5.5h10c1.1 0 2-.9 2-2v-33h1c1.1 0 2-.9 2-2v-5.1c0-1-.7-1.8-1.7-1.9zm-1.3 6h-51v-3.2l25.5-3.8 25.5 3.8z"/><path d="m38.4 29.3-17-8.5c-.6-.3-1.2-.3-1.8 0l-17 8.5c-.7.3-1.1 1-1.1 1.8v11c0 4.4 2.5 8.3 6.4 10.3l11.7 5.9c.6.3 1.2.3 1.8 0l17-8.5c.7-.3 1.1-1 1.1-1.8v-16.9c0-.8-.4-1.5-1.1-1.8zm-17.9-5.6 5.4 2.7-14.1 7.1-5.4-2.7zm-1.5 30.9-9.8-4.9c-2.9-1.4-4.7-4.4-4.7-7.6v-8.9l14.5 7.2zm1.5-16.8-5.4-2.7 14.1-7.1 5.4 2.7zm16 9.5-14.5 7.3v-14.2l14.5-7.2z"/><path d="m49 21c0-.3-.2-.5-.5-.5h-12c-.3 0-.5.2-.5.5 0 1.4 1.1 2.5 2.5 2.5h10c.3 0 .5-.2.5-.5z"/><path d="m49 29c0-.3-.2-.5-.5-.5h-5c-.3 0-.5.2-.5.5 0 1.4 1.1 2.5 2.5 2.5h3c.3 0 .5-.2.5-.5z"/><path d="m48.5 36.5h-5c-.3 0-.5.2-.5.5 0 1.4 1.1 2.5 2.5 2.5h3c.3 0 .5-.2.5-.5v-2c0-.3-.2-.5-.5-.5z"/></g></svg>