<svg enable-background="new 0 0 60 60" viewBox="0 0 60 60" xmlns="http://www.w3.org/2000/svg"><path d="m56.5 10.5h-53c-1.1 0-2 .9-2 2v25.5c0 6.35 5.15 11.5 11.5 11.5h43.5c1.1 0 2-.9 2-2v-35c0-1.1-.9-2-2-2zm-1 36h-42.5c-4.69 0-8.5-3.81-8.5-8.5v-24.5h51z"/><path d="m34.53 37.57 4.32-2.59c-.22 1.67-1.11 4.55-4.45 7.56-.2.18-.23.49-.05.7.91 1.07 2.57 1.12 3.52.08 2.52-2.76 3.49-5.42 3.85-7.35.09.01.18.03.28.03s.19-.02.29-.03c.36 1.93 1.34 4.6 3.88 7.37.94 1.02 2.57.97 3.47-.09l.02-.03c.18-.21.15-.52-.05-.7-3.29-2.97-4.21-5.81-4.44-7.49l4.2 2.52c1.33.8 3.03-.16 3.03-1.71v-8.97c0-1.55-1.7-2.51-3.03-1.71l-4.63 2.78c-.77-.58-1.71-.94-2.74-.94-1.05 0-2.01.38-2.78.99l-4.69-2.82c-1.33-.8-3.03.16-3.03 1.71v8.97c0 1.56 1.7 2.52 3.03 1.72zm14.86-8.92v5.44l-2.98-1.79c.05-.26.08-.53.08-.8 0-.36-.05-.7-.13-1.03zm-7.39 1.35c.83 0 1.5.67 1.5 1.5s-.67 1.5-1.5 1.5-1.5-.67-1.5-1.5.67-1.5 1.5-1.5zm-7.5-1.35 3.12 1.87c-.07.32-.12.64-.12.98 0 .25.03.5.08.74l-3.08 1.85z"/><circle cx="13.5" cy="18" r="1.5"/><circle cx="13.5" cy="42" r="1.5"/><circle cx="13.5" cy="36" r="1.5"/><circle cx="13.5" cy="30" r="1.5"/><circle cx="13.5" cy="24" r="1.5"/></svg>