<svg id="Ebene_1" data-name="Ebene 1" xmlns="http://www.w3.org/2000/svg" viewBox="0 0 60 60"><title>Zeichenfläche 1</title><path d="M30,5.41c8,0,9,0,12.12.18a16.52,16.52,0,0,1,5.57,1,9.4,9.4,0,0,1,3.45,2.24,9.27,9.27,0,0,1,2.24,3.45,16.56,16.56,0,0,1,1,5.57c.14,3.17.18,4.11.18,12.12s0,9-.18,12.12a16.52,16.52,0,0,1-1,5.57,9.4,9.4,0,0,1-2.24,3.45,9.27,9.27,0,0,1-3.45,2.24,16.56,16.56,0,0,1-5.57,1c-3.17.14-4.11.18-12.12.18s-9,0-12.12-.18a16.52,16.52,0,0,1-5.57-1,9.4,9.4,0,0,1-3.45-2.24A9.07,9.07,0,0,1,6.61,47.7a16.56,16.56,0,0,1-1-5.57C5.43,39,5.39,38,5.39,30s0-9,.18-12.12a16.52,16.52,0,0,1,1-5.57A9.21,9.21,0,0,1,8.85,8.86,9.25,9.25,0,0,1,12.3,6.63a16.56,16.56,0,0,1,5.57-1C21,5.43,22,5.41,30,5.41M30,0c-8.14,0-9.17,0-12.37.18a22.06,22.06,0,0,0-7.27,1.39A14.66,14.66,0,0,0,5,5a14.89,14.89,0,0,0-3.46,5.31A21.87,21.87,0,0,0,.18,17.64C0,20.83,0,21.85,0,30s0,9.17.18,12.37a22.13,22.13,0,0,0,1.39,7.29A14.67,14.67,0,0,0,5,55a14.89,14.89,0,0,0,5.31,3.46,22.13,22.13,0,0,0,7.29,1.39C20.83,60,21.85,60,30,60s9.17,0,12.37-.18a22.13,22.13,0,0,0,7.29-1.39A14.67,14.67,0,0,0,55,55a14.89,14.89,0,0,0,3.46-5.31,22.13,22.13,0,0,0,1.39-7.29C60,39.16,60,38.15,60,30s0-9.17-.18-12.37a22.13,22.13,0,0,0-1.39-7.29A14.67,14.67,0,0,0,55,5a14.89,14.89,0,0,0-5.31-3.46A22,22,0,0,0,42.37.17C39.15,0,38.13,0,30,0Z"/><path d="M30,14.59A15.4,15.4,0,1,0,45.39,30,15.39,15.39,0,0,0,30,14.59ZM30,40A10,10,0,1,1,40,30,10,10,0,0,1,30,40Z"/><circle cx="46" cy="13.98" r="3.6"/></svg>