<svg enable-background="new 0 0 60 60" viewBox="0 0 60 60" xmlns="http://www.w3.org/2000/svg"><path d="m56.5 10.51h-52.98c-1.1 0-2 .9-2 2v25.49c0 6.35 5.15 11.5 11.5 11.5h43.48c1.1 0 2-.9 2-2v-34.99c0-1.1-.9-2-2-2zm-1 35.99h-42.48c-4.69 0-8.5-3.81-8.5-8.5v-24.49h50.98z"/><path d="m11.47 35.88c.66.23 1.36.34 2.12.34 1.34 0 2.4-.34 3.19-1.02s1.18-1.58 1.18-2.71c0-.51-.08-.97-.23-1.37-.16-.4-.4-.77-.74-1.1-.25-.25-.55-.48-.9-.69s-.87-.45-1.58-.73c-.85-.35-1.4-.64-1.64-.89-.25-.24-.37-.55-.37-.91 0-.39.13-.71.39-.93s.62-.34 1.06-.34c.41 0 .77.1 1.09.31s.57.49.73.85c.05.11.11.17.18.2.07.02.16.01.27-.04l1.42-.63c.08-.05.14-.1.16-.17s.02-.14-.02-.22c-.32-.78-.81-1.37-1.45-1.79-.65-.42-1.42-.63-2.31-.63-1.2 0-2.16.33-2.9.98-.73.65-1.1 1.5-1.1 2.54 0 .5.07.94.22 1.33s.39.73.71 1.06c.23.23.5.44.83.65.33.2.83.45 1.52.73.9.38 1.47.71 1.73.98s.39.59.39.98c0 .44-.16.78-.47 1.01s-.77.35-1.38.35c-.47 0-.92-.08-1.36-.25s-.84-.4-1.18-.7c-.08-.07-.16-.1-.24-.09s-.15.07-.21.16l-.81 1.4c-.04.07-.05.14-.04.21s.04.13.1.21c.44.38.99.69 1.64.92z"/><path d="m19.36 31.63h1.13c.21 1.51.73 2.65 1.54 3.42.81.78 1.9 1.17 3.26 1.17.61 0 1.17-.08 1.69-.25.51-.17.97-.41 1.36-.73.06-.06.1-.12.12-.19s.01-.14-.03-.22l-.61-1.31c-.05-.1-.11-.15-.18-.17s-.15 0-.23.06c-.31.23-.6.39-.88.48s-.57.13-.88.13c-.73 0-1.31-.19-1.73-.58s-.72-.99-.89-1.8h3.48c.1 0 .17-.03.22-.08s.08-.13.08-.22v-.74c0-.1-.03-.17-.08-.22s-.13-.08-.22-.08h-3.62c-.01-.06-.02-.13-.02-.21s0-.2 0-.37c0-.07 0-.14 0-.21s0-.13 0-.21h3.64c.1 0 .17-.03.22-.08s.08-.13.08-.22v-.7c0-.1-.03-.17-.08-.22s-.13-.08-.22-.08h-3.51c.14-.81.39-1.42.74-1.83s.81-.61 1.37-.61c.43 0 .78.1 1.06.29.27.19.48.48.63.88.04.11.09.18.15.21.07.03.15.02.26-.03l1.49-.54c.08-.02.14-.07.17-.13.03-.07.03-.14.01-.22-.22-.81-.65-1.45-1.3-1.91s-1.46-.69-2.43-.69c-1.23 0-2.26.4-3.07 1.2-.82.8-1.34 1.93-1.57 3.39h-1.15c-.1 0-.17.03-.22.08s-.08.13-.08.22v.7c0 .1.03.17.08.22s.13.08.22.08h1.02c-.01.06-.02.12-.02.19s0 .17 0 .31v.24s0 .16 0 .24h-1c-.1 0-.17.03-.22.08s-.08.13-.08.22v.72c0 .1.03.17.08.22s.13.1.22.1z"/><path d="m30.67 25.69h.93v10c0 .1.03.17.08.22s.13.09.23.09h1.86c.09 0 .17-.03.22-.08s.08-.13.08-.22v-3.67h1.24c1.66 0 2.95-.38 3.87-1.13s1.38-1.81 1.38-3.17c0-1.35-.44-2.37-1.31-3.06s-2.16-1.03-3.87-1.03h-4.71c-.1 0-.17.03-.22.08s-.08.13-.08.22v1.45c0 .1.03.17.08.22.05.06.13.08.22.08zm3.41-.02h1.27c.9 0 1.57.18 2.03.54.45.36.68.9.68 1.61 0 .72-.23 1.26-.7 1.64s-1.14.56-2.03.56h-1.25z"/><path d="m40.96 36h1.85c.09 0 .17-.02.22-.06s.09-.11.12-.21c.1-.5.19-.99.29-1.46s.2-.93.3-1.37h4.62c.08.35.17.73.26 1.15s.2.98.33 1.69c.02.1.06.16.12.21s.13.05.23.05h1.94c.11 0 .18-.03.23-.09s.06-.14.04-.25c-.43-2.11-.97-4.15-1.62-6.09s-1.41-3.85-2.29-5.7c-.04-.08-.08-.14-.14-.18s-.13-.05-.22-.05h-2.29c-.08 0-.16.02-.21.05-.06.04-.11.1-.14.18-.87 1.84-1.63 3.73-2.27 5.67s-1.18 3.98-1.62 6.12c-.02.11-.01.19.04.25.03.06.1.09.21.09zm4.09-7.7c.3-.84.62-1.65.95-2.41h.07c.35.8.67 1.62.98 2.46.3.84.58 1.72.83 2.64h-3.67c.26-.95.54-1.85.84-2.69z"/></svg>