<svg enable-background="new 0 0 60 60" viewBox="0 0 60 60" xmlns="http://www.w3.org/2000/svg"><g fill="#0050aa"><path d="m19.6 40.2c.6.3 1.2.3 1.8 0l17-8.5c.7-.3 1.1-1 1.1-1.8v-16.8c0-.8-.4-1.5-1.1-1.8l-17-8.5c-.6-.3-1.2-.3-1.8 0l-17 8.5c-.7.3-1.1 1-1.1 1.8v11c0 4.4 2.5 8.3 6.4 10.3zm16.9-10.9-14.5 7.3v-14.2l14.5-7.2zm-1.9-16.5-14.1 7.1-5.4-2.7 14.1-7.1zm-14.1-7.1 5.4 2.7-14.1 7.1-5.4-2.7zm-16 18.4v-8.9l14.5 7.2v14.1l-9.8-4.9c-2.9-1.4-4.7-4.3-4.7-7.5z"/><path d="m30.5 1.5c-.3 0-.5.2-.5.5v.1c0 1.3 1 2.4 2.3 2.5 13 1.2 23.2 12.1 23.2 25.4 0 14.5-12.2 26.3-26.9 25.5-6.4-.3-12.4-3.2-17-7.8l-1.2-1.2h5.9c1.4 0 2.5-1.1 2.5-2.5 0-.3-.2-.5-.5-.5h-11c-1.1 0-2 .9-2 2v11c0 .3.2.5.5.5 1.4 0 2.5-1.1 2.5-2.5v-5.9l1.1 1.1c5.1 5.1 11.8 8.3 19 8.7 16.5.9 30.1-12.2 30.1-28.4 0-15.5-12.5-28.2-28-28.5z"/></g></svg>