<?xml version="1.0" encoding="utf-8"?>
<!-- Generator: Adobe Illustrator 26.5.0, SVG Export Plug-In . SVG Version: 6.00 Build 0)  -->
<svg version="1.1" id="Ebene_1" xmlns="http://www.w3.org/2000/svg" xmlns:xlink="http://www.w3.org/1999/xlink" x="0px" y="0px"
	 viewBox="0 0 60 60" style="enable-background:new 0 0 60 60;" xml:space="preserve">
<style type="text/css">
	.st0{fill:#FFFFFF;}
</style>
<path class="st0" d="M30,1.6C14.3,1.6,1.6,14.3,1.6,30c0,12,7.5,22.3,18,26.4c-0.3-2.2-0.5-5.7,0.1-8.1c0.5-2.2,3.3-14.1,3.3-14.1
	s-0.8-1.7-0.8-4.2c0-3.9,2.3-6.9,5.1-6.9c2.4,0,3.6,1.8,3.6,4c0,2.4-1.5,6.1-2.4,9.4c-0.7,2.8,1.4,5.1,4.2,5.1c5,0,8.9-5.3,8.9-13
	c0-6.8-4.9-11.5-11.9-11.5c-8.1,0-12.8,6-12.8,12.3c0,2.4,0.9,5,2.1,6.5c0.2,0.3,0.3,0.5,0.2,0.8c-0.2,0.9-0.7,2.8-0.8,3.2
	c-0.1,0.5-0.4,0.6-1,0.4c-3.5-1.7-5.7-6.9-5.7-11c0-8.9,6.5-17.1,18.7-17.1c9.8,0,17.5,7,17.5,16.4c0,9.8-6.2,17.6-14.7,17.6
	c-2.9,0-5.6-1.5-6.5-3.3c0,0-1.4,5.4-1.8,6.7c-0.6,2.5-2.4,5.6-3.5,7.4c2.7,0.8,5.5,1.3,8.4,1.3c15.7,0,28.3-12.7,28.3-28.3
	C58.3,14.3,45.6,1.6,30,1.6z"/>
</svg>
