<svg enable-background="new 0 0 60 60" viewBox="0 0 60 60" xmlns="http://www.w3.org/2000/svg"><g fill="#0050aa"><path d="m51.7 6.5c-.1 0-.2-.1-.3-.1-2.6-1-12.7-4.9-21.4-4.9-8 0-17 3.2-20.5 4.5-.3.2-.7.3-1.1.5-.7.3-1.2 1-1.2 1.8v28.5c0 3.7 1.8 7.3 4.9 9.4l16.7 11.8c.7.5 1.6.5 2.3 0l16.9-11.8c3.1-2.2 4.9-5.7 4.9-9.4v-28.5c0-.8-.5-1.5-1.2-1.8zm-1.8 30.3c0 2.8-1.4 5.4-3.6 7l-16.3 11.4-16.2-11.4c-2.3-1.6-3.6-4.2-3.6-7v-27.8c2.9-1.1 12.1-4.5 19.8-4.5s17 3.4 19.9 4.5z"/><path d="m19.4 27.3c-.2-.2-.5-.2-.7 0l-1.4 1.4c-.2.2-.2.5 0 .7l7.3 7.3c.8.8 2 .8 2.8 0l15.3-15.3c.2-.2.2-.5 0-.7-1-1-2.6-1-3.5 0l-13.2 13.2z"/></g></svg>