<?xml version="1.0" encoding="utf-8"?>
<!-- Generator: Adobe Illustrator 21.1.0, SVG Export Plug-In . SVG Version: 6.00 Build 0)  -->
<svg version="1.1" id="eps" xmlns="http://www.w3.org/2000/svg" xmlns:xlink="http://www.w3.org/1999/xlink" x="0px" y="0px" viewBox="0 0 60 60" style="enable-background:new 0 0 60 60;" xml:space="preserve">
    
    <path d="M55.53,21.1,39,20.92l-1.4,0-5.73-17a2,2,0,0,0-3.79,0l-5.72,17-14.92.17-3,0a2,2,0,0,0-1.17,3.6l4.17,3.1,10.21,7.6L12.33,52.5a2,2,0,0,0,3.07,2.23L30,44.36l9,6.4,5.59,4a2,2,0,0,0,3.07-2.23L42.34,35.4,56.7,24.7A2,2,0,0,0,55.53,21.1ZM40,33.41a2,2,0,0,0-.72,2.2l4.67,15L39,47.08V23.91l13.52.16Z"/>

</svg>	