<svg enable-background="new 0 0 60 60" viewBox="0 0 60 60" xmlns="http://www.w3.org/2000/svg"><path d="m45.43 41.75c.69-1.5 1.07-3.14 1.07-4.84 0-3.1-1.21-6.01-3.4-8.2s-5.1-3.4-8.2-3.4-6.01 1.21-8.2 3.4-3.4 5.1-3.4 8.2 1.21 6.01 3.4 8.2 5.1 3.4 8.2 3.4c1.7 0 3.34-.38 4.84-1.07l9.56 10.22c.77.83 2.08.85 2.87.05l3.51-3.51c.8-.8.78-2.1-.05-2.87zm-16.6 1.23c-1.62-1.62-2.52-3.78-2.52-6.07s.89-4.45 2.52-6.07 3.78-2.52 6.07-2.52 4.45.89 6.07 2.52 2.52 3.78 2.52 6.07-.89 4.45-2.52 6.07-3.78 2.52-6.07 2.52-4.44-.89-6.07-2.52zm21.96 11.86-8.46-9.04c.26-.22.52-.45.77-.7s.48-.5.7-.77l9.04 8.46z"/><path d="m56.72 7.46-53-5.89c-1.18-.13-2.22.8-2.22 1.99v9.94c0 1.1.9 2 2 2h4v27c0 1.1.9 2 2 2h13.01c.27 0 .49-.22.49-.49v-.02c0-1.38-1.11-2.49-2.49-2.49h-10.01v-26h4.5v4.3c0 .66.54 1.2 1.2 1.2h9.6c.66 0 1.2-.54 1.2-1.2v-4.3h22.5v25c0 1.38 1.12 2.5 2.5 2.5.28 0 .5-.22.5-.5v-27h4c1.1 0 2-.9 2-2v-4.05c0-1.02-.77-1.88-1.78-1.99zm-35.72 11.74c-2.32 0-4.2-1.88-4.2-4.2s1.88-4.2 4.2-4.2 4.2 1.88 4.2 4.2-1.88 4.2-4.2 4.2zm34.5-6.7h-3-2.5-23v-2.3c0-.66-.54-1.2-1.2-1.2h-9.6c-.66 0-1.2.54-1.2 1.2v2.3h-10.5v-7.82l51 5.67z"/></svg>