<?xml version="1.0" encoding="utf-8"?>
<!-- Generator: Adobe Illustrator 26.5.0, SVG Export Plug-In . SVG Version: 6.00 Build 0)  -->
<svg version="1.1" id="Layer_2" xmlns="http://www.w3.org/2000/svg" xmlns:xlink="http://www.w3.org/1999/xlink" x="0px" y="0px"
	 viewBox="0 0 60 60" style="enable-background:new 0 0 60 60;" xml:space="preserve">
<style type="text/css">
	.st0{fill:#FFFFFF;}
</style>
<g id="Layer_1-2">
	<path class="st0" d="M47.8,12.6c-3.1-2-5.4-5.3-6.1-9.1c-0.2-0.8-0.2-1.7-0.2-2.5h-10l0,40.1c-0.2,4.5-3.9,8.1-8.4,8.1
		c-1.4,0-2.7-0.4-3.9-1c-2.7-1.4-4.5-4.2-4.5-7.4c0-4.6,3.8-8.4,8.4-8.4c0.9,0,1.7,0.1,2.5,0.4V22.5c-0.8-0.1-1.6-0.2-2.5-0.2
		c-10.1,0-18.4,8.3-18.4,18.4c0,6.2,3.1,11.7,7.9,15.1c3,2.1,6.6,3.3,10.5,3.3c10.1,0,18.4-8.3,18.4-18.4V20.4
		c3.9,2.8,8.7,4.5,13.9,4.5v-10C52.6,14.8,50,14,47.8,12.6z"/>
</g>
</svg>
