<svg xml:space="preserve" style="enable-background:new 0 0 185.6 59.9;" viewBox="0 0 185.6 59.9" y="0px" x="0px" xmlns:xlink="http://www.w3.org/1999/xlink" xmlns="http://www.w3.org/2000/svg" id="payment-visa-2022" version="1.1">
<style type="text/css">
	.st0{fill:#1434CB;}
</style>
<path d="M70.8,1.5L46.9,58.5H31.3L19.5,13c-0.7-2.8-1.3-3.8-3.5-5C12.5,6.1,6.6,4.3,1.5,3.1l0.4-1.7h25.1
	c3.2,0,6.1,2.1,6.8,5.8l6.2,33L55.3,1.5L70.8,1.5L70.8,1.5z M132,39.9c0.1-15.1-20.8-15.9-20.7-22.6c0-2,2-4.2,6.3-4.8
	c2.1-0.3,7.9-0.5,14.6,2.6L134.7,3c-3.6-1.3-8.1-2.5-13.8-2.5c-14.6,0-24.9,7.8-24.9,18.9c-0.1,8.2,7.3,12.8,12.9,15.5
	c5.8,2.8,7.7,4.6,7.7,7.1c0,3.8-4.6,5.5-8.8,5.6c-7.4,0.1-11.7-2-15.2-3.6l-2.7,12.5c3.4,1.6,9.8,3,16.4,3
	C121.8,59.4,131.9,51.8,132,39.9 M170.5,58.5h13.7L172.2,1.5h-12.6c-2.8,0-5.2,1.6-6.3,4.2l-22.2,52.9h15.5l3.1-8.5h18.9L170.5,58.5
	z M154,38.3l7.8-21.4l4.5,21.4H154z M91.9,1.5L79.7,58.5H64.9L77.2,1.5L91.9,1.5L91.9,1.5z" class="st0" id="path4"></path>
</svg>
